<svg version="1.1" xmlns="http://www.w3.org/2000/svg" viewBox="0 0 365 221" width="365" height="221">
  <!-- svg-source:excalidraw -->
  
  <defs>
    <style class="style-fonts">
      @font-face {
        font-family: "Virgil";
        src: url("https://excalidraw.com/Virgil.woff2");
      }
      @font-face {
        font-family: "Cascadia";
        src: url("https://excalidraw.com/Cascadia.woff2");
      }
    </style>
  </defs>
  <rect x="0" y="0" width="365" height="221" fill="#ffffff"/><g transform="translate(65 27) rotate(0 -1 56.5)" stroke="none"><path fill="#000000" d="M 1.56,0 Q 1.56,0 1.52,2.29 1.49,4.59 1.75,6.92 2.00,9.25 2.40,12.87 2.79,16.49 2.95,20.38 3.12,24.26 3.18,28.79 3.25,33.31 3.27,38.68 3.30,44.06 3.02,48.97 2.74,53.87 2.62,58.22 2.50,62.57 1.86,66.53 1.23,70.49 0.68,74.42 0.12,78.35 -0.10,81.14 -0.33,83.93 -0.72,86.61 -1.12,89.29 -1.56,91.32 -2.00,93.36 -2.16,95.27 -2.31,97.18 -2.32,98.86 -2.33,100.54 -2.26,101.83 -2.20,103.12 -2.12,104.24 -2.04,105.35 -1.90,107.42 -1.76,109.49 -1.72,111.06 -1.69,112.62 -1.75,112.99 -1.81,113.36 -1.99,113.69 -2.16,114.02 -2.43,114.27 -2.70,114.53 -3.04,114.69 -3.38,114.84 -3.75,114.88 -4.12,114.92 -4.49,114.84 -4.85,114.76 -5.17,114.57 -5.49,114.38 -5.73,114.09 -5.97,113.81 -6.11,113.46 -6.25,113.11 -6.27,112.74 -6.29,112.37 -6.19,112.01 -6.09,111.65 -5.88,111.34 -5.67,111.04 -5.37,110.81 -5.07,110.58 -4.72,110.47 -4.37,110.35 -3.99,110.35 -3.62,110.35 -3.27,110.47 -2.91,110.59 -2.62,110.81 -2.32,111.04 -2.11,111.35 -1.90,111.66 -1.80,112.02 -1.70,112.37 -1.72,112.75 -1.74,113.12 -1.88,113.47 -2.02,113.81 -2.26,114.10 -2.50,114.38 -2.82,114.57 -3.14,114.76 -3.51,114.84 -3.87,114.92 -4.24,114.88 -4.61,114.84 -4.95,114.68 -5.29,114.53 -5.56,114.27 -5.83,114.01 -6.01,113.68 -6.18,113.35 -6.24,112.99 -6.30,112.62 -6.30,112.62 -6.30,112.62 -6.19,110.02 -6.08,107.42 -5.99,106.36 -5.91,105.30 -5.80,104.16 -5.69,103.02 -5.56,101.71 -5.42,100.39 -5.26,98.65 -5.11,96.91 -4.88,94.84 -4.65,92.76 -4.19,90.83 -3.73,88.90 -3.35,86.30 -2.96,83.71 -2.73,80.84 -2.49,77.98 -1.94,74.02 -1.38,70.06 -0.77,66.28 -0.15,62.50 -0.04,58.11 0.06,53.72 0.33,48.90 0.60,44.07 0.56,38.71 0.52,33.36 0.44,28.87 0.36,24.39 0.17,20.60 -0.00,16.81 -0.43,13.20 -0.85,9.60 -1.17,7.10 -1.49,4.60 -1.52,2.30 -1.56,0 -1.53,-0.18 -1.51,-0.37 -1.45,-0.54 -1.38,-0.72 -1.27,-0.88 -1.16,-1.03 -1.02,-1.16 -0.88,-1.28 -0.72,-1.37 -0.55,-1.46 -0.37,-1.50 -0.18,-1.55 0.00,-1.55 0.18,-1.55 0.37,-1.50 0.55,-1.46 0.72,-1.37 0.88,-1.28 1.02,-1.16 1.16,-1.03 1.27,-0.88 1.38,-0.72 1.45,-0.54 1.51,-0.37 1.53,-0.18 1.56,0.00 1.56,0.00 L 1.56,0 Z"/></g><g transform="translate(63 92) rotate(0 21 -6)" stroke="none"><path fill="#000000" d="M 0,-1.79 Q 0,-1.79 2.58,-1.73 5.17,-1.66 7.91,-1.90 10.66,-2.13 13.56,-2.50 16.46,-2.87 18.82,-3.30 21.18,-3.73 23.25,-4.46 25.32,-5.19 27.43,-5.80 29.54,-6.41 31.51,-7.22 33.47,-8.02 34.85,-8.74 36.24,-9.46 37.36,-10.11 38.49,-10.75 39.37,-11.72 40.24,-12.69 40.44,-12.91 40.65,-13.13 40.91,-13.27 41.17,-13.41 41.46,-13.47 41.76,-13.52 42.05,-13.48 42.35,-13.43 42.61,-13.29 42.88,-13.16 43.09,-12.94 43.30,-12.73 43.43,-12.46 43.56,-12.19 43.59,-11.90 43.63,-11.60 43.57,-11.31 43.51,-11.01 43.36,-10.76 43.21,-10.50 42.98,-10.30 42.76,-10.11 42.48,-9.99 42.20,-9.88 41.91,-9.86 41.61,-9.84 41.32,-9.91 41.03,-9.99 40.78,-10.15 40.53,-10.32 40.35,-10.55 40.16,-10.79 40.07,-11.07 39.97,-11.35 39.96,-11.65 39.96,-11.95 40.05,-12.23 40.14,-12.52 40.32,-12.76 40.50,-13.00 40.74,-13.17 40.99,-13.34 41.27,-13.42 41.56,-13.51 41.86,-13.49 42.16,-13.48 42.44,-13.37 42.71,-13.27 42.94,-13.08 43.17,-12.89 43.33,-12.63 43.49,-12.38 43.56,-12.09 43.63,-11.80 43.60,-11.50 43.57,-11.20 43.45,-10.93 43.32,-10.66 43.33,-10.66 43.33,-10.66 41.66,-9.12 39.99,-7.58 38.75,-7.10 37.50,-6.63 36.01,-6.06 34.51,-5.50 32.42,-4.63 30.33,-3.76 28.30,-3.14 26.26,-2.52 24.00,-1.71 21.73,-0.89 19.31,-0.40 16.88,0.09 13.93,0.53 10.98,0.98 8.07,1.32 5.17,1.66 2.58,1.73 0,1.79 -0.21,1.76 -0.42,1.74 -0.63,1.66 -0.83,1.59 -1.01,1.46 -1.19,1.34 -1.33,1.18 -1.47,1.02 -1.57,0.82 -1.67,0.63 -1.73,0.42 -1.78,0.21 -1.78,-0.00 -1.78,-0.21 -1.73,-0.42 -1.67,-0.63 -1.57,-0.82 -1.47,-1.02 -1.33,-1.18 -1.19,-1.34 -1.01,-1.46 -0.83,-1.59 -0.63,-1.66 -0.42,-1.74 -0.21,-1.76 0.00,-1.79 0.00,-1.79 L 0,-1.79 Z"/></g><g transform="translate(106 10) rotate(0 -1.5 61)" stroke="none"><path fill="#000000" d="M 1.63,-0.27 Q 1.63,-0.27 1.95,1.44 2.27,3.16 2.40,5.13 2.54,7.10 2.58,9.08 2.62,11.07 2.62,13.06 2.63,15.05 2.30,17.71 1.97,20.37 1.82,23.70 1.67,27.04 1.30,30.53 0.94,34.03 0.49,38.37 0.04,42.72 -0.73,47.19 -1.51,51.67 -1.83,56.36 -2.16,61.05 -2.30,65.06 -2.44,69.08 -2.51,73.65 -2.57,78.23 -2.60,82.76 -2.63,87.29 -2.64,90.95 -2.65,94.60 -2.66,98.16 -2.66,101.73 -2.38,104.61 -2.10,107.50 -1.98,109.63 -1.86,111.76 -1.20,113.00 -0.53,114.23 -0.12,115.53 0.29,116.83 1.53,118.91 2.77,120.98 2.82,121.30 2.88,121.62 2.83,121.94 2.78,122.26 2.63,122.55 2.49,122.84 2.25,123.07 2.02,123.29 1.73,123.43 1.43,123.57 1.11,123.61 0.79,123.65 0.47,123.59 0.15,123.52 -0.12,123.36 -0.40,123.19 -0.61,122.95 -0.82,122.70 -0.95,122.40 -1.07,122.10 -1.09,121.78 -1.12,121.46 -1.03,121.14 -0.95,120.83 -0.77,120.56 -0.59,120.29 -0.34,120.09 -0.08,119.89 0.22,119.78 0.52,119.67 0.85,119.67 1.17,119.66 1.48,119.76 1.79,119.86 2.05,120.06 2.31,120.25 2.50,120.51 2.68,120.78 2.77,121.09 2.87,121.40 2.85,121.73 2.84,122.05 2.72,122.36 2.61,122.66 2.40,122.91 2.19,123.16 1.92,123.33 1.64,123.50 1.32,123.58 1.01,123.65 0.68,123.62 0.36,123.59 0.06,123.45 -0.22,123.32 -0.46,123.10 -0.70,122.88 -0.86,122.60 -1.01,122.31 -1.01,122.31 -1.01,122.31 -1.66,121.00 -2.31,119.68 -2.69,118.64 -3.07,117.60 -3.19,116.50 -3.31,115.40 -3.90,113.68 -4.49,111.97 -4.61,109.86 -4.73,107.76 -5.02,104.74 -5.31,101.72 -5.31,98.16 -5.31,94.59 -5.30,90.93 -5.29,87.28 -5.27,82.74 -5.25,78.19 -5.20,73.59 -5.14,68.98 -5.01,64.93 -4.88,60.87 -4.56,56.04 -4.24,51.21 -3.50,46.82 -2.76,42.44 -2.35,38.09 -1.94,33.75 -1.63,30.34 -1.32,26.93 -1.23,23.48 -1.15,20.03 -0.92,17.56 -0.70,15.09 -0.73,13.12 -0.77,11.16 -0.84,9.24 -0.90,7.32 -1.01,5.53 -1.12,3.73 -1.37,2.00 -1.63,0.27 -1.63,0.07 -1.64,-0.12 -1.60,-0.32 -1.57,-0.51 -1.48,-0.69 -1.40,-0.87 -1.27,-1.03 -1.15,-1.18 -0.99,-1.30 -0.83,-1.42 -0.64,-1.50 -0.46,-1.58 -0.26,-1.61 -0.07,-1.65 0.12,-1.63 0.32,-1.62 0.51,-1.55 0.70,-1.49 0.87,-1.39 1.04,-1.28 1.17,-1.14 1.31,-0.99 1.41,-0.82 1.51,-0.65 1.57,-0.46 1.63,-0.27 1.63,-0.27 L 1.63,-0.27 Z"/></g><g transform="translate(136 77) rotate(0 0.5 14.5)" stroke="none"><path fill="#000000" d="M 2.15,0 Q 2.15,0 2.18,1.43 2.21,2.87 2.11,4.92 2.01,6.97 1.95,8.99 1.88,11.01 1.80,13.30 1.73,15.60 1.67,17.73 1.61,19.85 1.69,21.33 1.77,22.81 1.86,24.01 1.94,25.22 2.31,26.48 2.67,27.75 2.76,28.07 2.84,28.39 2.83,28.72 2.81,29.05 2.68,29.35 2.56,29.66 2.35,29.91 2.13,30.16 1.85,30.33 1.56,30.50 1.24,30.57 0.92,30.64 0.59,30.60 0.26,30.57 -0.03,30.43 -0.33,30.29 -0.57,30.06 -0.81,29.83 -0.96,29.54 -1.11,29.25 -1.16,28.92 -1.22,28.59 -1.16,28.27 -1.11,27.94 -0.95,27.65 -0.80,27.36 -0.56,27.13 -0.32,26.91 -0.01,26.77 0.28,26.63 0.60,26.60 0.93,26.56 1.25,26.64 1.58,26.71 1.86,26.88 2.14,27.05 2.35,27.30 2.57,27.55 2.69,27.86 2.81,28.17 2.83,28.50 2.84,28.83 2.75,29.15 2.66,29.47 2.48,29.74 2.29,30.01 2.03,30.21 1.76,30.41 1.45,30.51 1.14,30.62 0.81,30.62 0.48,30.61 0.16,30.51 -0.14,30.40 -0.40,30.20 -0.66,30.00 -0.85,29.73 -1.03,29.45 -1.03,29.45 -1.03,29.45 -1.49,27.33 -1.94,25.22 -1.86,24.01 -1.77,22.81 -1.69,21.33 -1.61,19.85 -1.67,17.73 -1.73,15.60 -1.80,13.30 -1.88,11.01 -1.95,8.99 -2.01,6.97 -2.11,4.92 -2.21,2.87 -2.18,1.43 -2.15,0 -2.12,-0.25 -2.09,-0.51 -1.99,-0.75 -1.90,-1.00 -1.75,-1.21 -1.61,-1.42 -1.41,-1.60 -1.22,-1.77 -0.99,-1.89 -0.76,-2.01 -0.51,-2.07 -0.25,-2.13 0.00,-2.13 0.25,-2.13 0.51,-2.07 0.76,-2.01 0.99,-1.89 1.22,-1.77 1.41,-1.60 1.61,-1.42 1.76,-1.21 1.90,-1.00 1.99,-0.75 2.09,-0.51 2.12,-0.25 2.15,0.00 2.15,0.00 L 2.15,0 Z"/></g><g transform="translate(135 56) rotate(0 0.00005000000000165983 0.00005000000000165983)" stroke="none"><path fill="#000000" d="M 1.57,-1.57 Q 1.57,-1.57 1.77,-1.27 1.98,-0.98 2.09,-0.64 2.20,-0.29 2.19,0.05 2.18,0.41 2.05,0.75 1.93,1.09 1.70,1.37 1.48,1.65 1.18,1.84 0.87,2.04 0.52,2.12 0.18,2.21 -0.17,2.18 -0.53,2.15 -0.86,2.01 -1.19,1.87 -1.46,1.63 -1.73,1.39 -1.90,1.07 -2.08,0.76 -2.15,0.41 -2.21,0.05 -2.17,-0.29 -2.12,-0.65 -1.96,-0.97 -1.80,-1.29 -1.54,-1.54 -1.29,-1.80 -0.97,-1.96 -0.65,-2.12 -0.29,-2.17 0.06,-2.21 0.41,-2.15 0.76,-2.08 1.07,-1.90 1.39,-1.73 1.63,-1.46 1.87,-1.19 2.01,-0.86 2.15,-0.53 2.18,-0.17 2.21,0.18 2.12,0.52 2.03,0.87 1.84,1.18 1.65,1.48 1.37,1.70 1.09,1.93 0.75,2.05 0.41,2.18 0.05,2.19 -0.30,2.20 -0.64,2.09 -0.98,1.98 -1.27,1.77 -1.57,1.56 -1.57,1.57 -1.57,1.57 -1.73,1.35 -1.90,1.14 -2.01,0.90 -2.12,0.66 -2.16,0.39 -2.21,0.13 -2.20,-0.13 -2.18,-0.40 -2.10,-0.65 -2.02,-0.91 -1.88,-1.14 -1.74,-1.36 -1.55,-1.55 -1.36,-1.74 -1.14,-1.88 -0.91,-2.02 -0.65,-2.10 -0.40,-2.18 -0.13,-2.20 0.13,-2.21 0.39,-2.16 0.66,-2.12 0.90,-2.01 1.14,-1.90 1.35,-1.73 1.57,-1.57 1.57,-1.57 L 1.57,-1.57 Z"/></g><g transform="translate(10 180) rotate(0 137 -46)" stroke="none"><path fill="#000000" d="M 0.40,-1.61 Q 0.40,-1.61 1.57,-1.41 2.74,-1.22 4.23,-1.15 5.71,-1.09 7.80,-0.96 9.88,-0.83 13.29,-1.03 16.71,-1.23 21.89,-1.87 27.07,-2.51 34.08,-4.48 41.08,-6.44 49.81,-9.56 58.54,-12.68 70.02,-17.16 81.50,-21.64 94.69,-27.56 107.89,-33.47 122.41,-40.30 136.93,-47.12 150.62,-52.62 164.31,-58.13 177.02,-63.05 189.74,-67.97 200.31,-72.07 210.88,-76.17 220.88,-79.36 230.87,-82.55 238.57,-84.77 246.27,-86.99 251.85,-88.51 257.42,-90.03 261.84,-90.97 266.25,-91.91 269.21,-92.99 272.17,-94.07 272.42,-94.10 272.67,-94.14 272.92,-94.09 273.17,-94.05 273.40,-93.93 273.62,-93.80 273.79,-93.61 273.96,-93.43 274.07,-93.19 274.17,-92.96 274.19,-92.71 274.22,-92.45 274.16,-92.21 274.10,-91.96 273.96,-91.74 273.83,-91.53 273.63,-91.36 273.43,-91.20 273.20,-91.11 272.96,-91.02 272.70,-91.01 272.45,-91.00 272.20,-91.08 271.96,-91.15 271.75,-91.29 271.54,-91.44 271.39,-91.65 271.24,-91.85 271.17,-92.09 271.09,-92.34 271.09,-92.59 271.10,-92.85 271.18,-93.09 271.27,-93.33 271.43,-93.53 271.58,-93.73 271.80,-93.87 272.01,-94.01 272.26,-94.07 272.50,-94.13 272.76,-94.11 273.01,-94.10 273.25,-94.00 273.48,-93.90 273.67,-93.73 273.86,-93.56 273.99,-93.34 274.12,-93.12 274.17,-92.87 274.22,-92.62 274.19,-92.37 274.15,-92.12 274.04,-91.89 273.93,-91.66 273.75,-91.48 273.58,-91.30 273.35,-91.18 273.12,-91.07 273.12,-91.07 273.12,-91.07 269.96,-90.20 266.80,-89.33 262.46,-88.40 258.12,-87.48 252.56,-85.96 247.01,-84.45 239.34,-82.24 231.68,-80.03 221.76,-76.86 211.85,-73.69 201.27,-69.58 190.70,-65.47 178.01,-60.55 165.32,-55.62 151.71,-50.14 138.09,-44.66 123.55,-37.81 109.02,-30.96 95.77,-24.99 82.52,-19.03 71.02,-14.50 59.52,-9.98 50.71,-6.78 41.89,-3.59 34.69,-1.51 27.48,0.55 22.22,1.28 16.95,2.02 13.38,2.35 9.80,2.67 7.61,2.70 5.43,2.73 3.64,2.55 1.85,2.37 0.72,1.99 -0.40,1.61 -0.58,1.53 -0.77,1.46 -0.94,1.35 -1.10,1.23 -1.23,1.08 -1.36,0.93 -1.46,0.76 -1.55,0.58 -1.60,0.38 -1.64,0.19 -1.64,-0.00 -1.64,-0.20 -1.59,-0.39 -1.55,-0.59 -1.45,-0.77 -1.36,-0.94 -1.23,-1.09 -1.09,-1.24 -0.93,-1.35 -0.76,-1.47 -0.57,-1.54 -0.39,-1.61 -0.19,-1.63 0.00,-1.66 0.20,-1.63 0.40,-1.61 0.40,-1.61 L 0.40,-1.61 Z"/></g><g transform="translate(40 208) rotate(0 157.5 -60)" stroke="none"><path fill="#000000" d="M 1.79,-0.59 Q 1.79,-0.59 2.12,0.17 2.45,0.95 3.90,0.72 5.34,0.50 6.94,0.10 8.53,-0.29 11.63,-1.26 14.73,-2.22 19.76,-4.31 24.80,-6.39 30.97,-9.27 37.15,-12.14 47.28,-16.80 57.40,-21.46 69.46,-27.45 81.51,-33.43 96.72,-40.57 111.93,-47.72 127.87,-55.63 143.80,-63.53 159.82,-70.36 175.84,-77.18 191.86,-83.25 207.88,-89.31 224.18,-95.05 240.48,-100.79 256.33,-105.81 272.18,-110.84 284.38,-114.70 296.57,-118.56 301.75,-120.20 306.93,-121.83 307.15,-121.87 307.36,-121.90 307.57,-121.86 307.78,-121.82 307.97,-121.71 308.16,-121.61 308.30,-121.45 308.45,-121.29 308.53,-121.10 308.62,-120.90 308.64,-120.69 308.66,-120.47 308.61,-120.26 308.56,-120.06 308.45,-119.87 308.33,-119.69 308.17,-119.56 308.00,-119.42 307.80,-119.34 307.60,-119.27 307.38,-119.26 307.17,-119.25 306.96,-119.31 306.76,-119.37 306.58,-119.50 306.41,-119.62 306.28,-119.80 306.15,-119.97 306.09,-120.17 306.02,-120.38 306.03,-120.59 306.03,-120.81 306.10,-121.01 306.17,-121.21 306.31,-121.38 306.44,-121.55 306.62,-121.67 306.80,-121.78 307.01,-121.84 307.22,-121.89 307.43,-121.88 307.64,-121.86 307.84,-121.78 308.04,-121.69 308.20,-121.55 308.36,-121.41 308.47,-121.22 308.58,-121.04 308.62,-120.83 308.66,-120.62 308.63,-120.40 308.61,-120.19 308.51,-120.00 308.42,-119.80 308.27,-119.65 308.12,-119.50 307.93,-119.40 307.74,-119.30 307.74,-119.30 307.74,-119.30 302.56,-117.66 297.38,-116.02 285.19,-112.15 273.00,-108.29 257.18,-103.26 241.37,-98.24 225.11,-92.50 208.84,-86.76 192.88,-80.70 176.92,-74.64 160.99,-67.83 145.06,-61.01 129.11,-53.06 113.16,-45.10 98.00,-37.93 82.84,-30.75 70.78,-24.69 58.72,-18.63 48.65,-13.89 38.58,-9.15 32.40,-6.13 26.22,-3.12 21.12,-0.83 16.02,1.46 12.87,2.68 9.72,3.91 7.44,4.60 5.16,5.30 3.79,5.17 2.42,5.04 1.24,4.60 0.06,4.16 -0.61,3.32 -1.30,2.49 -1.54,1.54 -1.79,0.59 -1.83,0.37 -1.88,0.15 -1.87,-0.07 -1.86,-0.30 -1.79,-0.52 -1.73,-0.74 -1.62,-0.93 -1.50,-1.13 -1.35,-1.29 -1.19,-1.46 -1.00,-1.58 -0.80,-1.70 -0.59,-1.77 -0.37,-1.84 -0.14,-1.86 0.07,-1.88 0.30,-1.84 0.52,-1.81 0.73,-1.72 0.94,-1.63 1.12,-1.49 1.30,-1.36 1.45,-1.18 1.59,-1.00 1.69,-0.80 1.79,-0.59 1.79,-0.59 L 1.79,-0.59 Z"/></g></svg>